<svg width="510" height="512" viewBox="0 0 510 512" fill="none" xmlns="http://www.w3.org/2000/svg">
<path d="M493.89 58.275L355.178 83.558L379.282 0L186.79 37.718L183.791 88.358L15.1449 58.214C3.52987 57.538 -3.23813 65.879 1.55787 77.46L245.614 505.443C250.867 514.018 262.961 514.353 268.264 505.443L507.575 77.419C512.975 67.743 504.701 56.401 493.89 58.275ZM256.89 493.71L17.8699 74.556L182.863 104.047L175.085 235.412L242.717 219.804L223.859 312.148L275.233 296.54L249.738 419.937C248.468 428.006 258.979 432.299 264.178 420.749L414.398 120.957L340.263 135.265L350.349 100.303L491.259 74.619L256.89 493.71Z" fill="black"/>
</svg>
